# xmcd
#
# Track frame offsets: 
#        150
#        20072
#        32237
#        45125
#        68059
#        85555
#        106518
#        123493
#        138543
#        156573
#        173413
#        183532
#        200899
#        213530
#        229729
#        245093
#        265325
#        286687
#
# Disc length: 4074 seconds
#
# Revision: 0
# Processed by: cddbd v1.5.1PL2 Copyright (c) Steve Scherf et al.
# Submitted via: ExactAudioCopy v0.95b4
#
DISCID=fe0fe812
DTITLE=Various Artist - Toronto Blues Society - 20 Years [CD1]
DYEAR=2005
DGENRE=Blues
TTITLE0=Jack de Keyzer - It's In The Way You Love
TTITLE1=Suzie Vinnick - The Honey I Want
TTITLE2=Pappy Johns Band With Murray Porter - Meat On The Bone
TTITLE3=Saturday Night Fish Fry - Something On My Mind
TTITLE4=Raoul and The Big Time - Baby Don't Stop
TTITLE5=Ken Whiteley - Wilderness
TTITLE6=David Rotundo - Drinking Overtime
TTITLE7=Harrison Kennedy - Sweet Taste
TTITLE8=Jerome Godboo - Goddamn Money
TTITLE9=Danny Marks - Thank You For Giving Me The Blues
TTITLE10=Jackie Washington - I Ain't Got You
TTITLE11=Pet Schmidt and Shane Scott - Vampire Woman
TTITLE12=Mr. Rick and The Biscuits - That Back Door
TTITLE13=Julian Fauth - Drifting
TTITLE14=Wickens-Knight - Five Below Zero
TTITLE15=Carlos del Junco - No Particular Place
TTITLE16=Molly Johnson - Night Comes
TTITLE17=Downchild Blues Band - Come On In
EXTD=
EXTT0=
EXTT1=
EXTT2=
EXTT3=
EXTT4=
EXTT5=
EXTT6=
EXTT7=
EXTT8=
EXTT9=
EXTT10=
EXTT11=
EXTT12=
EXTT13=
EXTT14=
EXTT15=
EXTT16=
EXTT17=
PLAYORDER=
